<svg version="1.2" xmlns="http://www.w3.org/2000/svg" viewBox="0 0 40 40" width="40" height="40">
	<title>access_icon-svg</title>
	<style>
		.s0 { fill: #dd163b } 
		.s1 { fill: #fdfdfd } 
	</style>
	<path id="Layer" class="s0" d="m0 8c0-4.4 3.6-8 8-8h24c4.4 0 8 3.6 8 8v24c0 4.4-3.6 8-8 8h-24c-4.4 0-8-3.6-8-8z"/>
	<path id="Layer" fill-rule="evenodd" class="s1" d="m14.6 8c0.2 0.1 0.6 0.4 0.6 0.7 0.1 0.4 0.5 2.6 0.6 3.8 0.1 0.6 0.3 1.4 0.3 1.6 0.1 0.6 0.3 0.9 0.5 0.9 0.1-0.1 0.2-0.4 0.4-1 0-0.3 0.3-1.6 0.5-2.8 0.5-2.5 0.5-2.6 1-2.6 0.2 0 0.3 0 0.5 0.2 0.3 0.3 0.3 0.3 0.2 1.4-0.1 1.4-0.3 4.3-0.3 5.1v0.9l-0.5 0.1c-1 0.4-1.6 0.6-2.3 0.7-0.8 0.1-1.1 0.2-1.4 0.7-0.3 0.6-0.2 1.5 0.4 1.9 0.4 0.3 1 0.6 1.5 0.7q0.5 0.1 1.5 0.1c0.5 0 0.9 0 0.9 0 0 0.1-0.8 1.6-1.1 2-0.1 0.1-0.5 0.7-1 1.3l-0.8 1.1-1.1 0.1c-1.2 0-1.3 0-1.8-0.4q-1.1-0.9-1.8-4.6c-0.2-1.2-0.4-1.6-1.3-3-1.4-2.1-2.1-3.2-2.1-3.5 0-0.4 0.5-0.6 0.8-0.5 0.1 0 0.4 0.4 0.8 0.9 0.4 0.4 0.7 0.8 0.7 0.8 0 0.1 0.2 0.2 0.4 0.5 0.1 0.2 0.3 0.4 0.4 0.5 0.1 0.1 0.2 0.3 0.4 0.4 0.3 0.3 0.6 0.5 0.8 0.4 0.2-0.1 0-0.8-0.8-2.5-0.1-0.3-0.3-0.6-0.3-0.6 0-0.1-0.1-0.3-0.2-0.6-1.1-2.4-1.2-2.7-0.5-2.9 0.5-0.2 0.6 0 1.3 1.3 2 3.9 2.1 4.1 2.3 4 0.2-0.1 0.1-1.2-0.2-4.8 0-0.5-0.1-1.1-0.1-1.3-0.1-0.5 0-0.6 0.2-0.8 0.1-0.1 0.3-0.2 0.4-0.2 0 0 0.2 0 0.2 0zm10.7 7.3c0.2 0 0.4 0.2 1 0.7 0.5 0.5 0.9 0.8 1.3 1 0.4 0.2 0.7 0.4 0.8 0.6 0.6 0.5 0.6 1.8 0.1 3.3-0.1 0.5-0.4 1.4-0.7 1.9-0.2 0.5-0.4 1.1-0.4 1.2-0.2 0.4-0.2 1.6-0.2 3.1 0 0.7 0 1.7 0 2.2-0.1 0.9-0.1 1-0.3 1.1q-0.4 0.4-0.7 0c-0.2-0.1-0.2-0.3-0.5-2.8-0.1-0.9-0.2-1.7-0.2-1.8-0.1 0-0.2-0.1-0.3-0.2-0.1-0.1-0.1-0.1-0.2 0-0.3 0.2-0.4 0.8-1 4.2-0.2 1.6-0.3 2-0.6 2.1-0.2 0.2-0.7 0.1-0.8-0.1-0.1-0.1-0.1-0.8 0-1.6 0.2-2.1 0.3-3 0.4-3.7 0-0.9 0-0.9-0.1-0.9-0.2 0-0.2 0-1.4 2-0.3 0.6-0.7 1.3-1.3 2.4-0.4 0.7-0.7 1.2-0.8 1.3-0.1 0-0.3 0.1-0.4 0.1-0.3 0-0.4-0.1-0.5-0.2-0.3-0.4-0.3-0.6 0.9-3.1 0.1-0.3 0.2-0.5 0.2-0.6 0 0 0.1-0.3 0.3-0.6 1-2.2 1-2.1 0.9-2.4-0.1-0.4-0.2-0.2-2.5 2-2.4 2.5-2.4 2.4-2.8 2-0.4-0.4-0.3-0.6 0.1-1.2 1.1-1.5 3.1-4.1 3.4-4.5 0.5-0.8 1.1-2 1.2-2.5 0.2-0.5 0.1-0.8-0.3-1-0.2-0.1-0.4-0.1-1.6 0-1.4 0-1.5 0-1.9-0.2-0.4-0.1-0.8-0.5-0.8-0.7 0-0.2 0.5-0.4 0.9-0.4 0.6 0 2.3-0.6 3.8-1.3 0.7-0.4 1.3-0.7 1.3-0.7 0 0 0.2 0 0.5-0.2 0.4-0.1 1.3-0.5 1.6-0.6 0.3 0 1.3 0 1.6 0.1zm4.5 2.3c0.2 0.6 0.3 1.2 0.2 2.1-0.1 0.7-0.2 1-0.4 1-0.2-0.1-0.2-0.1-0.1-1 0.1-0.7 0.1-1.2-0.2-1.8-0.1-0.3-0.1-0.5-0.1-0.6 0.1-0.3 0.3-0.1 0.6 0.3zm1.1 0c0.3 0.5 0.4 1.6 0.2 2.4-0.2 0.8-0.4 1.1-0.6 0.9-0.1-0.1-0.1-0.2 0-0.6 0.2-0.7 0.3-1.6 0.1-2.2-0.1-0.3-0.1-0.5-0.1-0.6 0-0.1 0.3-0.1 0.4 0.1zm-19.3 6.5c0.4 0.7 0.9 1.2 1.4 1.6 0.4 0.2 0.5 0.4 0.3 0.6-0.3 0.2-1.5-0.9-2.1-1.8-0.3-0.6-0.3-0.8-0.2-0.9 0.2-0.2 0.3-0.1 0.6 0.5zm-1 0.3c0.3 0.8 0.8 1.6 1.4 2 0.2 0.1 0.3 0.4 0.1 0.5-0.3 0.1-1.3-0.8-1.8-1.7-0.3-0.7-0.4-1-0.3-1.2q0.3-0.3 0.6 0.4z"/>
</svg>